<svg id="Layer_3" data-name="Layer 3" xmlns="http://www.w3.org/2000/svg" viewBox="0 0 595.28 595.28">
  <g>
    <rect width="595.28" height="595.28" fill="none"/>
    <g opacity="0.5">
      <rect x="5.9" width="87.33" height="595.28" fill="#f1f2f2"/>
      <rect x="105.04" width="87.33" height="595.28" fill="#f1f2f2"/>
      <rect x="204.17" width="87.33" height="595.28" fill="#f1f2f2"/>
      <rect x="303.3" width="87.33" height="595.28" fill="#f1f2f2"/>
      <rect x="402.43" width="87.33" height="595.28" fill="#f1f2f2"/>
      <rect x="501.57" width="87.33" height="595.28" fill="#f1f2f2"/>
    </g>
    <g opacity="0.5">
      <rect x="5.9" y="507.43" width="87.33" height="9.15" fill="#366072"/>
      <rect x="105.04" y="529.39" width="87.33" height="9.15" fill="#366072"/>
      <rect x="105.04" y="399.36" width="87.33" height="9.15" fill="#366072"/>
      <rect x="105.04" y="380.28" width="87.33" height="9.15" fill="#366072"/>
      <rect x="105.04" y="340.41" width="87.33" height="9.15" fill="#366072"/>
      <rect x="105.04" y="316.71" width="87.33" height="9.15" fill="#366072"/>
      <rect x="105.04" y="271.63" width="87.33" height="6.55" fill="#366072"/>
      <rect x="105.04" y="259.01" width="87.33" height="6.55" fill="#366072"/>
      <rect x="105.04" y="41.61" width="87.33" height="13.49" fill="#366072"/>
      <rect x="204.17" y="90.42" width="87.33" height="8.98" fill="#366072"/>
      <rect x="204.17" y="128.59" width="87.33" height="6.65" fill="#366072"/>
      <rect x="204.17" y="411.83" width="87.33" height="6.65" fill="#366072"/>
      <rect x="303.3" y="403.93" width="87.33" height="6.65" fill="#366072"/>
      <rect x="303.3" y="347.63" width="87.33" height="6.65" fill="#366072"/>
      <rect x="303.3" y="313.39" width="87.33" height="6.65" fill="#366072"/>
      <rect x="303.3" y="297.64" width="87.33" height="6.65" fill="#366072"/>
      <rect x="303.3" y="245.63" width="87.33" height="6.65" fill="#366072"/>
      <rect x="303.3" y="219.91" width="87.33" height="6.65" fill="#366072"/>
      <rect x="303.3" y="176.56" width="87.33" height="6.65" fill="#366072"/>
      <rect x="402.43" y="136.4" width="87.33" height="6.65" fill="#366072"/>
      <rect x="402.43" y="213.26" width="87.33" height="6.65" fill="#366072"/>
      <rect x="402.43" y="232.62" width="87.33" height="6.65" fill="#366072"/>
      <rect x="402.43" y="330.29" width="87.33" height="6.65" fill="#366072"/>
      <rect x="402.43" y="369.59" width="87.33" height="6.65" fill="#366072"/>
      <rect x="402.43" y="418.48" width="87.33" height="6.65" fill="#366072"/>
      <rect x="402.43" y="429.12" width="87.33" height="6.65" fill="#366072"/>
      <rect x="402.43" y="472.47" width="87.33" height="6.65" fill="#366072"/>
      <rect x="402.43" y="504.25" width="87.33" height="6.65" fill="#366072"/>
      <rect x="402.43" y="519.28" width="87.33" height="6.65" fill="#366072"/>
      <rect x="402.43" y="556.56" width="87.33" height="6.65" fill="#366072"/>
      <rect x="501.57" y="569.56" width="87.33" height="6.65" fill="#366072"/>
      <rect x="501.57" y="538.93" width="87.33" height="6.65" fill="#366072"/>
      <rect x="501.57" y="507.58" width="87.33" height="6.65" fill="#366072"/>
      <rect x="501.57" y="479.11" width="87.33" height="6.65" fill="#366072"/>
      <rect x="501.57" y="387.22" width="87.33" height="6.65" fill="#366072"/>
      <rect x="501.57" y="261.81" width="87.33" height="6.65" fill="#366072"/>
      <rect x="501.57" y="71.96" width="87.33" height="6.65" fill="#366072"/>
      <rect x="501.57" y="58.95" width="87.33" height="6.65" fill="#366072"/>
      <rect x="501.57" y="282.9" width="87.33" height="9.82" fill="#366072"/>
      <rect x="501.57" y="201.12" width="87.33" height="13.87" fill="#366072"/>
      <rect x="501.57" y="410.58" width="87.33" height="11.22" fill="#366072"/>
      <rect x="402.43" y="347.63" width="87.33" height="12.14" fill="#366072"/>
      <rect x="402.43" y="196.79" width="87.33" height="11.27" fill="#366072"/>
      <rect x="204.17" y="437.6" width="87.33" height="6.65" fill="#366072"/>
      <rect x="204.17" y="472.47" width="87.33" height="6.65" fill="#366072"/>
      <rect x="204.17" y="494.62" width="87.33" height="6.65" fill="#366072"/>
      <rect x="204.17" y="578.23" width="87.33" height="6.65" fill="#366072"/>
      <rect x="303.3" y="451.95" width="87.33" height="6.65" fill="#366072"/>
      <rect x="303.3" y="437.6" width="87.33" height="9.97" fill="#366072"/>
      <rect x="204.17" y="7.13" width="87.33" height="6.74" fill="#366072"/>
      <rect x="105.04" y="285.21" width="87.33" height="13.1" fill="#366072"/>
      <rect x="5.9" y="488.79" width="87.33" height="9.15" fill="#366072"/>
      <rect x="5.9" y="452.82" width="87.33" height="9.15" fill="#366072"/>
      <rect x="5.9" y="436.34" width="87.33" height="9.15" fill="#366072"/>
      <rect x="5.9" y="406" width="87.33" height="9.15" fill="#366072"/>
      <rect x="5.9" y="366.99" width="87.33" height="9.15" fill="#366072"/>
      <rect x="5.9" y="318.88" width="87.33" height="9.15" fill="#366072"/>
      <rect x="5.9" y="173.24" width="87.33" height="9.15" fill="#366072"/>
      <rect x="5.9" y="145.31" width="87.33" height="4.58" fill="#366072"/>
      <rect x="5.9" y="91.51" width="87.33" height="4.58" fill="#366072"/>
      <rect x="5.9" y="76.34" width="87.33" height="4.58" fill="#366072"/>
      <rect x="5.9" y="61.17" width="87.33" height="4.58" fill="#366072"/>
      <rect x="5.9" y="293.74" width="87.33" height="13.06" fill="#366072"/>
    </g>
    <g>
      <rect x="501.57" y="27.6" width="87.33" height="6.65" fill="#abc2ce"/>
      <rect x="501.57" y="121.95" width="87.33" height="6.65" fill="#abc2ce"/>
      <rect x="501.57" y="139.72" width="87.33" height="6.65" fill="#abc2ce"/>
      <rect x="501.57" y="219.91" width="87.33" height="6.65" fill="#abc2ce"/>
      <rect x="501.57" y="297.64" width="87.33" height="6.65" fill="#abc2ce"/>
      <rect x="501.57" y="333.62" width="87.33" height="6.65" fill="#abc2ce"/>
      <rect x="501.57" y="344.31" width="87.33" height="6.65" fill="#abc2ce"/>
      <rect x="501.57" y="356.45" width="87.33" height="6.65" fill="#abc2ce"/>
      <rect x="501.57" y="439.26" width="87.33" height="6.65" fill="#abc2ce"/>
      <rect x="501.57" y="451.95" width="87.33" height="6.65" fill="#abc2ce"/>
      <rect x="501.57" y="581.55" width="87.33" height="6.65" fill="#abc2ce"/>
      <rect x="402.43" y="572.99" width="87.33" height="11.63" fill="#abc2ce"/>
      <rect x="402.43" y="532.73" width="87.33" height="11.63" fill="#abc2ce"/>
      <rect x="402.43" y="458.6" width="87.33" height="8.31" fill="#abc2ce"/>
      <rect x="402.43" y="398.95" width="87.33" height="8.31" fill="#abc2ce"/>
      <rect x="402.43" y="387.22" width="87.33" height="6.37" fill="#abc2ce"/>
      <rect x="402.43" y="165" width="87.33" height="6.37" fill="#abc2ce"/>
      <rect x="402.43" y="91.73" width="87.33" height="6.37" fill="#abc2ce"/>
      <rect x="402.43" y="43.64" width="87.33" height="6.37" fill="#abc2ce"/>
      <rect x="402.43" y="34.24" width="87.33" height="6.37" fill="#abc2ce"/>
      <rect x="402.43" y="24.85" width="87.33" height="6.37" fill="#abc2ce"/>
      <rect x="303.3" y="10.69" width="87.33" height="6.37" fill="#abc2ce"/>
      <rect x="303.3" y="110.95" width="87.33" height="6.37" fill="#abc2ce"/>
      <rect x="303.3" y="193.6" width="87.33" height="6.37" fill="#abc2ce"/>
      <rect x="303.3" y="204.87" width="87.33" height="6.37" fill="#abc2ce"/>
      <rect x="303.3" y="259.1" width="87.33" height="6.37" fill="#abc2ce"/>
      <rect x="303.3" y="390.41" width="87.33" height="6.37" fill="#abc2ce"/>
      <rect x="303.3" y="463.72" width="87.33" height="6.37" fill="#abc2ce"/>
      <rect x="303.3" y="475.93" width="87.33" height="6.37" fill="#abc2ce"/>
      <rect x="303.3" y="488.13" width="87.33" height="6.37" fill="#abc2ce"/>
      <rect x="303.3" y="500.34" width="87.33" height="6.37" fill="#abc2ce"/>
      <rect x="303.3" y="553.37" width="87.33" height="6.37" fill="#abc2ce"/>
      <rect x="204.17" y="529.55" width="87.33" height="6.37" fill="#abc2ce"/>
      <rect x="204.17" y="449.63" width="87.33" height="6.37" fill="#abc2ce"/>
      <rect x="204.17" y="399.92" width="87.33" height="6.37" fill="#abc2ce"/>
      <rect x="204.17" y="387.36" width="87.33" height="6.37" fill="#abc2ce"/>
      <rect x="204.17" y="315.69" width="87.33" height="6.37" fill="#abc2ce"/>
      <rect x="204.17" y="239.27" width="87.33" height="6.37" fill="#abc2ce"/>
      <rect x="204.17" y="146.7" width="87.33" height="6.37" fill="#abc2ce"/>
      <rect x="204.17" y="21.67" width="87.33" height="6.37" fill="#abc2ce"/>
      <rect x="105.04" y="77.73" width="87.33" height="6.37" fill="#abc2ce"/>
      <rect x="105.04" y="88.54" width="87.33" height="6.37" fill="#abc2ce"/>
      <rect x="105.04" y="229.44" width="87.33" height="6.37" fill="#abc2ce"/>
      <rect x="105.04" y="434.41" width="87.33" height="6.37" fill="#abc2ce"/>
      <rect x="105.04" y="446.44" width="87.33" height="6.37" fill="#abc2ce"/>
      <rect x="105.04" y="500.34" width="87.33" height="6.37" fill="#abc2ce"/>
      <rect x="105.04" y="513.4" width="87.33" height="6.37" fill="#abc2ce"/>
      <rect x="105.04" y="563.2" width="87.33" height="6.37" fill="#abc2ce"/>
      <rect x="5.9" y="535.36" width="87.33" height="6.37" fill="#abc2ce"/>
      <rect x="5.9" y="380.28" width="87.33" height="6.37" fill="#abc2ce"/>
      <rect x="5.9" y="275" width="87.33" height="6.37" fill="#abc2ce"/>
      <rect x="5.9" y="200.89" width="87.33" height="6.37" fill="#abc2ce"/>
      <rect x="5.9" y="103.99" width="87.33" height="6.37" fill="#abc2ce"/>
      <rect x="5.9" y="7.31" width="87.33" height="6.37" fill="#abc2ce"/>
      <rect x="105.04" y="467.13" width="87.33" height="11.48" fill="#abc2ce"/>
      <rect x="105.04" y="156.67" width="87.33" height="11.03" fill="#abc2ce"/>
      <rect x="204.17" y="265.3" width="87.33" height="12.52" fill="#abc2ce"/>
      <rect x="204.17" y="351.59" width="87.33" height="14.34" fill="#abc2ce"/>
      <rect x="204.17" y="204.08" width="87.33" height="14.34" fill="#abc2ce"/>
      <rect x="303.3" y="366.88" width="87.33" height="17.22" fill="#abc2ce"/>
      <rect x="303.3" y="93.23" width="87.33" height="13.94" fill="#abc2ce"/>
      <rect x="402.43" y="252.8" width="87.33" height="11.95" fill="#abc2ce"/>
    </g>
  </g>
</svg>
